<svg width="140" height="24" viewBox="0 0 140 24" fill="none" xmlns="http://www.w3.org/2000/svg">
<mask id="path-1-outside-1_132_1980" maskUnits="userSpaceOnUse" x="0" y="2.4306" width="140" height="19" fill="black">
<rect fill="white" y="2.4306" width="140" height="19"/>
<path d="M14.562 11.9454C14.562 14.4985 14.5489 17.0543 14.5724 19.6074C14.5776 20.1877 14.411 20.4584 13.802 20.4011C13.4376 20.3673 13.0629 20.3673 12.6985 20.4011C12.0843 20.4558 11.8579 20.2268 11.8683 19.5943C11.9021 17.7543 11.8527 15.9143 11.8943 14.0769C11.9099 13.4185 11.7069 13.2207 11.0485 13.2311C8.92481 13.2675 6.80113 13.2623 4.67744 13.2337C4.06584 13.2259 3.83681 13.4029 3.84983 14.0379C3.88366 15.8779 3.86544 17.7179 3.86024 19.5553C3.86024 20.3439 3.80818 20.3881 3.00139 20.3933C2.56937 20.3959 2.13474 20.3777 1.70272 20.3959C1.19522 20.422 0.997423 20.1877 1.00003 19.7011C1.00783 18.5117 1.00003 17.3197 1.00003 16.1303C1.00003 12.2343 1.00003 8.33829 1.00003 4.44226C1.00003 3.50794 1.04947 3.4663 2.00461 3.4637C2.37418 3.4637 2.74374 3.48452 3.1081 3.45849C3.67025 3.41946 3.87585 3.65369 3.86804 4.21584C3.84722 6.07667 3.86024 7.9375 3.86024 9.79832C3.86024 10.4039 4.15432 10.7075 4.7425 10.7092C6.88701 10.7092 9.03412 10.6962 11.1786 10.7196C11.7148 10.7248 11.8943 10.5583 11.8865 10.0169C11.8605 8.09105 11.8969 6.16515 11.8657 4.23926C11.8553 3.63547 12.0765 3.41425 12.6595 3.45589C13.0473 3.48452 13.4402 3.48452 13.828 3.45589C14.4006 3.41425 14.575 3.65889 14.5698 4.21584C14.5463 6.78977 14.5593 9.3663 14.5593 11.9428L14.562 11.9454Z"/>
<path d="M77.8927 11.9245C77.8927 14.4776 77.877 17.0307 77.9031 19.5839C77.9109 20.2007 77.7183 20.4219 77.0911 20.4063C74.8841 20.3464 75.2459 20.6925 75.2198 18.5689C75.2016 17.0125 75.2042 15.4536 75.2224 13.8947C75.2276 13.4288 75.0819 13.2336 74.5926 13.2388C72.3388 13.2544 70.0876 13.2544 67.8338 13.2388C67.3445 13.2362 67.1988 13.4314 67.2014 13.8947C67.217 15.7971 67.1909 17.7022 67.217 19.6073C67.2248 20.1902 67.04 20.4479 66.4336 20.4037C65.9599 20.3672 65.4811 20.388 65.0048 20.3958C64.6274 20.4011 64.44 20.2293 64.4453 19.8519C64.4453 19.7218 64.44 19.5917 64.44 19.4615C64.44 14.4412 64.44 9.42347 64.44 4.40314C64.44 3.47923 64.4557 3.4558 65.3926 3.46621C67.5215 3.48704 67.1805 3.19295 67.204 5.29321C67.2196 6.84954 67.2274 8.40847 67.1962 9.9674C67.1857 10.5165 67.3289 10.7326 67.9223 10.7247C70.1318 10.6935 72.3414 10.6987 74.551 10.7221C75.0637 10.7273 75.2302 10.5556 75.225 10.0481C75.2042 8.12219 75.2381 6.1963 75.2042 4.27301C75.1938 3.64059 75.428 3.4532 76.037 3.4558C77.8927 3.45841 77.8927 3.44019 77.8927 5.30622C77.8927 7.51319 77.8927 9.72016 77.8927 11.9271V11.9245Z"/>
<path d="M29.8624 9.32718C29.8624 7.6173 29.8754 5.90742 29.8545 4.19754C29.8493 3.6484 30.0367 3.39335 30.6093 3.43499C31.0621 3.46622 31.5202 3.45841 31.973 3.43759C32.4519 3.41677 32.6263 3.63278 32.6237 4.09604C32.6107 5.54566 32.6185 6.99529 32.6237 8.44751C32.6237 9.19705 32.6471 9.23088 33.3342 8.88214C35.843 7.60689 38.9739 8.27314 40.6604 10.1964C42.3989 12.1796 42.8934 14.4386 41.7873 16.8798C40.7801 19.1076 38.9947 20.3906 36.5275 20.526C32.7928 20.729 29.891 17.939 29.8676 14.1992C29.8571 12.5752 29.8676 10.9512 29.8676 9.32978L29.8624 9.32718ZM36.1475 17.8714C38.1775 17.8688 39.6089 16.4165 39.5907 14.3735C39.5725 12.2655 38.2582 11.011 36.0721 11.011C33.9406 11.011 32.6471 12.2889 32.6185 14.3735C32.5924 16.2448 33.9926 17.9078 36.1475 17.8714Z"/>
<path d="M124.895 15.7191C123.593 15.7191 122.295 15.7139 120.994 15.7243C120.767 15.7243 120.473 15.6228 120.34 15.8805C120.2 16.1563 120.439 16.3723 120.59 16.5701C121.402 17.6528 122.529 18.025 123.838 17.9677C124.733 17.9287 125.592 17.7205 126.402 17.3405C126.844 17.1349 127.18 17.2104 127.497 17.5695C127.755 17.861 128.039 18.1291 128.33 18.3867C128.7 18.7146 128.692 18.9619 128.265 19.2482C127.136 19.9977 125.873 20.3621 124.551 20.5104C121.785 20.8201 119.549 19.9248 118.092 17.4732C116.129 14.1706 117.837 10.1548 120.921 8.78068C124.689 7.10203 128.947 9.50419 129.556 13.3716C129.644 13.9285 129.775 14.4673 129.678 15.0398C129.598 15.5291 129.376 15.7399 128.858 15.7295C127.536 15.7035 126.214 15.7217 124.892 15.7217L124.895 15.7191ZM123.364 13.1035C124.252 13.1035 125.142 13.0957 126.029 13.1061C126.493 13.1113 126.61 12.9578 126.396 12.5206C125.78 11.2531 124.614 10.8523 123.38 10.8549C122.131 10.8549 121.009 11.3546 120.4 12.5986C120.192 13.0228 120.429 13.0983 120.762 13.1009C121.629 13.1087 122.495 13.1009 123.362 13.1035H123.364Z"/>
<path d="M28.2072 16.8902C28.2072 17.8193 28.1838 18.1299 28.2072 19.0591C28.2072 19.7804 27.7799 20.3626 27.089 20.3568C25.2256 20.3412 23.8114 20.4531 21.9532 20.3568C18.8561 20.1981 16.3993 17.71 16.3915 14.6936C16.3863 12.4945 17.0812 10.7326 18.8093 9.37402C21.2505 7.45334 24.9982 7.97124 26.8643 10.4489C27.7908 11.6773 28.2202 13.0332 28.2072 14.5531C28.202 15.3313 28.2072 16.1094 28.2072 16.8902ZM25.5474 15.4978C25.5474 15.4978 25.5421 15.4978 25.5395 15.4978C25.5395 15.0007 25.576 14.4985 25.5317 14.0066C25.4615 13.2362 25.157 12.5465 24.6391 11.9662C23.7568 10.9824 22.6195 10.8575 21.4171 11.0943C20.1158 11.352 19.4443 12.2915 19.1138 13.4835C18.5621 15.4718 19.6968 17.3378 21.6721 17.5773C22.8042 17.7152 23.6556 17.6086 24.8033 17.6164C25.1442 17.6164 25.5343 17.1895 25.5317 16.8902C25.5291 16.3489 25.55 16.0392 25.55 15.4978H25.5474Z"/>
<path d="M91.3989 16.8902C91.3989 17.8193 91.3755 18.1299 91.3989 19.0591C91.3989 19.7804 90.9716 20.3626 90.2808 20.3568C88.4173 20.3412 87.0032 20.4531 85.1449 20.3568C82.0479 20.1981 79.591 17.71 79.5832 14.6936C79.578 12.4945 80.2729 10.7326 82.001 9.37402C84.4422 7.45334 88.1899 7.97124 90.056 10.4489C90.9825 11.6773 91.4119 13.0332 91.3989 14.5531C91.3937 15.3313 91.3989 16.1094 91.3989 16.8902ZM88.7391 15.4978C88.7391 15.4978 88.7339 15.4978 88.7313 15.4978C88.7313 15.0007 88.7677 14.4985 88.7235 14.0066C88.6532 13.2362 88.3487 12.5465 87.8308 11.9662C86.9485 10.9824 85.8112 10.8575 84.6088 11.0943C83.3075 11.352 82.6361 12.2915 82.3055 13.4835C81.7538 15.4718 82.8885 17.3378 84.8638 17.5773C85.996 17.7152 86.8473 17.6086 87.995 17.6164C88.336 17.6164 88.7261 17.1895 88.7235 16.8902C88.7209 16.3489 88.7417 16.0392 88.7417 15.4978H88.7391Z"/>
<path d="M99.8554 20.5416C96.1858 20.5312 93.7264 18.457 93.1174 15.3808C92.5891 12.7079 94.2599 9.84772 96.9536 8.72081C99.983 7.45337 103.405 8.84053 104.873 11.7528C105.071 12.1458 105.035 12.4112 104.579 12.544C104.496 12.5674 104.413 12.5934 104.332 12.6247C103.361 13.0228 102.648 13.2883 101.779 12.0885C100.589 10.4463 97.9634 10.6389 96.6049 12.1093C95.5664 13.2336 95.3556 15.87 97.167 17.1947C98.765 18.3633 101.105 17.9807 102.185 16.2995C102.574 15.693 102.848 15.5005 103.668 15.7972C103.913 15.8857 104.166 15.9496 104.41 16.034C105.177 16.2995 105.225 16.4563 104.869 17.1356C103.679 19.4128 101.802 20.4844 99.8502 20.5416H99.8554Z"/>
<path d="M53.1319 11.175C52.5905 11.175 52.0492 11.1854 51.5079 11.1724C51.1175 11.162 50.9717 11.3311 50.9717 11.7163C50.9717 12.8406 50.9535 13.9649 51.0993 15.084C51.2476 16.2161 52.2834 17.278 53.4338 17.4992C54.0766 17.6215 54.722 17.671 55.3727 17.6371C55.8854 17.6111 56.13 17.8037 56.1248 18.345C56.1066 20.755 56.32 20.375 54.1495 20.375C50.9067 20.3724 48.4212 18.0145 48.3484 14.7821C48.2729 11.4743 48.3328 8.16382 48.3223 4.85337C48.3223 4.36669 48.4993 4.12726 49.0068 4.14808C49.4597 4.16629 49.9151 4.15588 50.3706 4.15588C50.8026 4.15588 50.9874 4.35108 50.9795 4.79351C50.9613 5.78769 50.9926 6.78447 50.9691 7.77864C50.9587 8.25751 51.1357 8.43449 51.612 8.42408C52.6296 8.40326 53.6472 8.42928 54.6648 8.41627C55.1593 8.41106 55.3831 8.61667 55.3649 9.11375C55.3492 9.5666 55.3414 10.0246 55.3675 10.4749C55.3987 11.024 55.141 11.2036 54.6257 11.1776C54.1286 11.1516 53.629 11.1724 53.1319 11.1724V11.175Z"/>
<path d="M109.217 11.9298C109.217 14.4621 109.217 16.9943 109.217 19.524C109.217 20.3282 109.17 20.3829 108.379 20.3777C106.216 20.3594 106.565 20.6457 106.557 18.5663C106.539 13.827 106.552 9.08777 106.552 4.35112C106.552 3.44803 106.56 3.43242 107.452 3.44283C109.506 3.46625 109.201 3.16175 109.217 5.17873C109.232 7.42994 109.219 9.67855 109.219 11.9298H109.217Z"/>
<path d="M116.163 20.3803C115.968 20.3803 115.77 20.3594 115.577 20.3855C114.942 20.4687 114.484 20.2293 114.052 19.753C112.598 18.1551 111.104 16.5935 109.612 15.0268C109.256 14.652 109.175 14.2981 109.553 13.8973C111.182 12.164 112.811 10.4307 114.44 8.69477C114.596 8.52821 114.786 8.43191 115.013 8.43191C115.835 8.42671 116.66 8.42671 117.483 8.42931C117.631 8.42931 117.81 8.42411 117.876 8.59327C117.943 8.76504 117.787 8.86914 117.688 8.97585C116.314 10.4437 114.935 11.9089 113.555 13.3742C113.482 13.4522 113.404 13.5277 113.329 13.6058C112.548 14.4152 112.564 14.423 113.36 15.2558C114.75 16.708 116.121 18.1785 117.488 19.6515C117.634 19.8077 117.946 19.9482 117.795 20.2293C117.662 20.4766 117.365 20.3698 117.136 20.3803C116.811 20.3959 116.486 20.3829 116.16 20.3829L116.163 20.3803Z"/>
<path d="M130.875 16.6065C130.875 15.7841 130.875 14.9643 130.875 14.1419C130.875 10.946 133.207 8.75461 136.299 8.43449C136.963 8.36683 137.639 8.42669 138.311 8.41628C138.779 8.40847 138.948 8.63229 138.972 9.08774C139.078 11.1359 138.972 11.1329 137.017 11.175C135.929 11.1984 134.893 11.3806 134.193 12.3435C133.616 13.1373 133.54 14.0768 133.519 15.0034C133.483 16.5154 133.491 18.0301 133.519 19.5448C133.53 20.1538 133.319 20.3958 132.692 20.3828C130.558 20.336 130.906 20.6223 130.875 18.6157C130.865 17.9442 130.875 17.2754 130.875 16.6039V16.6065Z"/>
<path d="M46.4174 14.3918C46.4174 16.1199 46.4018 17.8506 46.4278 19.5787C46.4356 20.1486 46.2742 20.4037 45.66 20.3907C43.5155 20.3412 43.7914 20.6561 43.781 18.5403C43.768 15.5369 43.7758 12.5336 43.781 9.5302C43.781 8.46055 43.82 8.42151 44.8584 8.42411C46.6464 8.42932 46.407 8.27837 46.4174 9.98565C46.4278 11.4561 46.4174 12.9239 46.4174 14.3944V14.3918Z"/>
<path d="M45.1237 7.4117C44.2544 7.4065 43.4971 6.63614 43.5257 5.78511C43.5543 4.9627 44.3247 4.23398 45.1549 4.24439C45.9955 4.2548 46.7477 4.99133 46.7555 5.81373C46.7659 6.66217 45.9929 7.41691 45.1211 7.4117H45.1237Z"/>
</mask>
<path d="M14.562 11.9454C14.562 14.4985 14.5489 17.0543 14.5724 19.6074C14.5776 20.1877 14.411 20.4584 13.802 20.4011C13.4376 20.3673 13.0629 20.3673 12.6985 20.4011C12.0843 20.4558 11.8579 20.2268 11.8683 19.5943C11.9021 17.7543 11.8527 15.9143 11.8943 14.0769C11.9099 13.4185 11.7069 13.2207 11.0485 13.2311C8.92481 13.2675 6.80113 13.2623 4.67744 13.2337C4.06584 13.2259 3.83681 13.4029 3.84983 14.0379C3.88366 15.8779 3.86544 17.7179 3.86024 19.5553C3.86024 20.3439 3.80818 20.3881 3.00139 20.3933C2.56937 20.3959 2.13474 20.3777 1.70272 20.3959C1.19522 20.422 0.997423 20.1877 1.00003 19.7011C1.00783 18.5117 1.00003 17.3197 1.00003 16.1303C1.00003 12.2343 1.00003 8.33829 1.00003 4.44226C1.00003 3.50794 1.04947 3.4663 2.00461 3.4637C2.37418 3.4637 2.74374 3.48452 3.1081 3.45849C3.67025 3.41946 3.87585 3.65369 3.86804 4.21584C3.84722 6.07667 3.86024 7.9375 3.86024 9.79832C3.86024 10.4039 4.15432 10.7075 4.7425 10.7092C6.88701 10.7092 9.03412 10.6962 11.1786 10.7196C11.7148 10.7248 11.8943 10.5583 11.8865 10.0169C11.8605 8.09105 11.8969 6.16515 11.8657 4.23926C11.8553 3.63547 12.0765 3.41425 12.6595 3.45589C13.0473 3.48452 13.4402 3.48452 13.828 3.45589C14.4006 3.41425 14.575 3.65889 14.5698 4.21584C14.5463 6.78977 14.5593 9.3663 14.5593 11.9428L14.562 11.9454Z" fill="#3F93FF"/>
<path d="M77.8927 11.9245C77.8927 14.4776 77.877 17.0307 77.9031 19.5839C77.9109 20.2007 77.7183 20.4219 77.0911 20.4063C74.8841 20.3464 75.2459 20.6925 75.2198 18.5689C75.2016 17.0125 75.2042 15.4536 75.2224 13.8947C75.2276 13.4288 75.0819 13.2336 74.5926 13.2388C72.3388 13.2544 70.0876 13.2544 67.8338 13.2388C67.3445 13.2362 67.1988 13.4314 67.2014 13.8947C67.217 15.7971 67.1909 17.7022 67.217 19.6073C67.2248 20.1902 67.04 20.4479 66.4336 20.4037C65.9599 20.3672 65.4811 20.388 65.0048 20.3958C64.6274 20.4011 64.44 20.2293 64.4453 19.8519C64.4453 19.7218 64.44 19.5917 64.44 19.4615C64.44 14.4412 64.44 9.42347 64.44 4.40314C64.44 3.47923 64.4557 3.4558 65.3926 3.46621C67.5215 3.48704 67.1805 3.19295 67.204 5.29321C67.2196 6.84954 67.2274 8.40847 67.1962 9.9674C67.1857 10.5165 67.3289 10.7326 67.9223 10.7247C70.1318 10.6935 72.3414 10.6987 74.551 10.7221C75.0637 10.7273 75.2302 10.5556 75.225 10.0481C75.2042 8.12219 75.2381 6.1963 75.2042 4.27301C75.1938 3.64059 75.428 3.4532 76.037 3.4558C77.8927 3.45841 77.8927 3.44019 77.8927 5.30622C77.8927 7.51319 77.8927 9.72016 77.8927 11.9271V11.9245Z" fill="#3F93FF"/>
<path d="M29.8624 9.32718C29.8624 7.6173 29.8754 5.90742 29.8545 4.19754C29.8493 3.6484 30.0367 3.39335 30.6093 3.43499C31.0621 3.46622 31.5202 3.45841 31.973 3.43759C32.4519 3.41677 32.6263 3.63278 32.6237 4.09604C32.6107 5.54566 32.6185 6.99529 32.6237 8.44751C32.6237 9.19705 32.6471 9.23088 33.3342 8.88214C35.843 7.60689 38.9739 8.27314 40.6604 10.1964C42.3989 12.1796 42.8934 14.4386 41.7873 16.8798C40.7801 19.1076 38.9947 20.3906 36.5275 20.526C32.7928 20.729 29.891 17.939 29.8676 14.1992C29.8571 12.5752 29.8676 10.9512 29.8676 9.32978L29.8624 9.32718ZM36.1475 17.8714C38.1775 17.8688 39.6089 16.4165 39.5907 14.3735C39.5725 12.2655 38.2582 11.011 36.0721 11.011C33.9406 11.011 32.6471 12.2889 32.6185 14.3735C32.5924 16.2448 33.9926 17.9078 36.1475 17.8714Z" fill="#3F93FF"/>
<path d="M124.895 15.7191C123.593 15.7191 122.295 15.7139 120.994 15.7243C120.767 15.7243 120.473 15.6228 120.34 15.8805C120.2 16.1563 120.439 16.3723 120.59 16.5701C121.402 17.6528 122.529 18.025 123.838 17.9677C124.733 17.9287 125.592 17.7205 126.402 17.3405C126.844 17.1349 127.18 17.2104 127.497 17.5695C127.755 17.861 128.039 18.1291 128.33 18.3867C128.7 18.7146 128.692 18.9619 128.265 19.2482C127.136 19.9977 125.873 20.3621 124.551 20.5104C121.785 20.8201 119.549 19.9248 118.092 17.4732C116.129 14.1706 117.837 10.1548 120.921 8.78068C124.689 7.10203 128.947 9.50419 129.556 13.3716C129.644 13.9285 129.775 14.4673 129.678 15.0398C129.598 15.5291 129.376 15.7399 128.858 15.7295C127.536 15.7035 126.214 15.7217 124.892 15.7217L124.895 15.7191ZM123.364 13.1035C124.252 13.1035 125.142 13.0957 126.029 13.1061C126.493 13.1113 126.61 12.9578 126.396 12.5206C125.78 11.2531 124.614 10.8523 123.38 10.8549C122.131 10.8549 121.009 11.3546 120.4 12.5986C120.192 13.0228 120.429 13.0983 120.762 13.1009C121.629 13.1087 122.495 13.1009 123.362 13.1035H123.364Z" fill="#3F93FF"/>
<path d="M28.2072 16.8902C28.2072 17.8193 28.1838 18.1299 28.2072 19.0591C28.2072 19.7804 27.7799 20.3626 27.089 20.3568C25.2256 20.3412 23.8114 20.4531 21.9532 20.3568C18.8561 20.1981 16.3993 17.71 16.3915 14.6936C16.3863 12.4945 17.0812 10.7326 18.8093 9.37402C21.2505 7.45334 24.9982 7.97124 26.8643 10.4489C27.7908 11.6773 28.2202 13.0332 28.2072 14.5531C28.202 15.3313 28.2072 16.1094 28.2072 16.8902ZM25.5474 15.4978C25.5474 15.4978 25.5421 15.4978 25.5395 15.4978C25.5395 15.0007 25.576 14.4985 25.5317 14.0066C25.4615 13.2362 25.157 12.5465 24.6391 11.9662C23.7568 10.9824 22.6195 10.8575 21.4171 11.0943C20.1158 11.352 19.4443 12.2915 19.1138 13.4835C18.5621 15.4718 19.6968 17.3378 21.6721 17.5773C22.8042 17.7152 23.6556 17.6086 24.8033 17.6164C25.1442 17.6164 25.5343 17.1895 25.5317 16.8902C25.5291 16.3489 25.55 16.0392 25.55 15.4978H25.5474Z" fill="#3F93FF"/>
<path d="M91.3989 16.8902C91.3989 17.8193 91.3755 18.1299 91.3989 19.0591C91.3989 19.7804 90.9716 20.3626 90.2808 20.3568C88.4173 20.3412 87.0032 20.4531 85.1449 20.3568C82.0479 20.1981 79.591 17.71 79.5832 14.6936C79.578 12.4945 80.2729 10.7326 82.001 9.37402C84.4422 7.45334 88.1899 7.97124 90.056 10.4489C90.9825 11.6773 91.4119 13.0332 91.3989 14.5531C91.3937 15.3313 91.3989 16.1094 91.3989 16.8902ZM88.7391 15.4978C88.7391 15.4978 88.7339 15.4978 88.7313 15.4978C88.7313 15.0007 88.7677 14.4985 88.7235 14.0066C88.6532 13.2362 88.3487 12.5465 87.8308 11.9662C86.9485 10.9824 85.8112 10.8575 84.6088 11.0943C83.3075 11.352 82.6361 12.2915 82.3055 13.4835C81.7538 15.4718 82.8885 17.3378 84.8638 17.5773C85.996 17.7152 86.8473 17.6086 87.995 17.6164C88.336 17.6164 88.7261 17.1895 88.7235 16.8902C88.7209 16.3489 88.7417 16.0392 88.7417 15.4978H88.7391Z" fill="#3F93FF"/>
<path d="M99.8554 20.5416C96.1858 20.5312 93.7264 18.457 93.1174 15.3808C92.5891 12.7079 94.2599 9.84772 96.9536 8.72081C99.983 7.45337 103.405 8.84053 104.873 11.7528C105.071 12.1458 105.035 12.4112 104.579 12.544C104.496 12.5674 104.413 12.5934 104.332 12.6247C103.361 13.0228 102.648 13.2883 101.779 12.0885C100.589 10.4463 97.9634 10.6389 96.6049 12.1093C95.5664 13.2336 95.3556 15.87 97.167 17.1947C98.765 18.3633 101.105 17.9807 102.185 16.2995C102.574 15.693 102.848 15.5005 103.668 15.7972C103.913 15.8857 104.166 15.9496 104.41 16.034C105.177 16.2995 105.225 16.4563 104.869 17.1356C103.679 19.4128 101.802 20.4844 99.8502 20.5416H99.8554Z" fill="#3F93FF"/>
<path d="M53.1319 11.175C52.5905 11.175 52.0492 11.1854 51.5079 11.1724C51.1175 11.162 50.9717 11.3311 50.9717 11.7163C50.9717 12.8406 50.9535 13.9649 51.0993 15.084C51.2476 16.2161 52.2834 17.278 53.4338 17.4992C54.0766 17.6215 54.722 17.671 55.3727 17.6371C55.8854 17.6111 56.13 17.8037 56.1248 18.345C56.1066 20.755 56.32 20.375 54.1495 20.375C50.9067 20.3724 48.4212 18.0145 48.3484 14.7821C48.2729 11.4743 48.3328 8.16382 48.3223 4.85337C48.3223 4.36669 48.4993 4.12726 49.0068 4.14808C49.4597 4.16629 49.9151 4.15588 50.3706 4.15588C50.8026 4.15588 50.9874 4.35108 50.9795 4.79351C50.9613 5.78769 50.9926 6.78447 50.9691 7.77864C50.9587 8.25751 51.1357 8.43449 51.612 8.42408C52.6296 8.40326 53.6472 8.42928 54.6648 8.41627C55.1593 8.41106 55.3831 8.61667 55.3649 9.11375C55.3492 9.5666 55.3414 10.0246 55.3675 10.4749C55.3987 11.024 55.141 11.2036 54.6257 11.1776C54.1286 11.1516 53.629 11.1724 53.1319 11.1724V11.175Z" fill="#3F93FF"/>
<path d="M109.217 11.9298C109.217 14.4621 109.217 16.9943 109.217 19.524C109.217 20.3282 109.17 20.3829 108.379 20.3777C106.216 20.3594 106.565 20.6457 106.557 18.5663C106.539 13.827 106.552 9.08777 106.552 4.35112C106.552 3.44803 106.56 3.43242 107.452 3.44283C109.506 3.46625 109.201 3.16175 109.217 5.17873C109.232 7.42994 109.219 9.67855 109.219 11.9298H109.217Z" fill="#3F93FF"/>
<path d="M116.163 20.3803C115.968 20.3803 115.77 20.3594 115.577 20.3855C114.942 20.4687 114.484 20.2293 114.052 19.753C112.598 18.1551 111.104 16.5935 109.612 15.0268C109.256 14.652 109.175 14.2981 109.553 13.8973C111.182 12.164 112.811 10.4307 114.44 8.69477C114.596 8.52821 114.786 8.43191 115.013 8.43191C115.835 8.42671 116.66 8.42671 117.483 8.42931C117.631 8.42931 117.81 8.42411 117.876 8.59327C117.943 8.76504 117.787 8.86914 117.688 8.97585C116.314 10.4437 114.935 11.9089 113.555 13.3742C113.482 13.4522 113.404 13.5277 113.329 13.6058C112.548 14.4152 112.564 14.423 113.36 15.2558C114.75 16.708 116.121 18.1785 117.488 19.6515C117.634 19.8077 117.946 19.9482 117.795 20.2293C117.662 20.4766 117.365 20.3698 117.136 20.3803C116.811 20.3959 116.486 20.3829 116.16 20.3829L116.163 20.3803Z" fill="#3F93FF"/>
<path d="M130.875 16.6065C130.875 15.7841 130.875 14.9643 130.875 14.1419C130.875 10.946 133.207 8.75461 136.299 8.43449C136.963 8.36683 137.639 8.42669 138.311 8.41628C138.779 8.40847 138.948 8.63229 138.972 9.08774C139.078 11.1359 138.972 11.1329 137.017 11.175C135.929 11.1984 134.893 11.3806 134.193 12.3435C133.616 13.1373 133.54 14.0768 133.519 15.0034C133.483 16.5154 133.491 18.0301 133.519 19.5448C133.53 20.1538 133.319 20.3958 132.692 20.3828C130.558 20.336 130.906 20.6223 130.875 18.6157C130.865 17.9442 130.875 17.2754 130.875 16.6039V16.6065Z" fill="#3F93FF"/>
<path d="M46.4174 14.3918C46.4174 16.1199 46.4018 17.8506 46.4278 19.5787C46.4356 20.1486 46.2742 20.4037 45.66 20.3907C43.5155 20.3412 43.7914 20.6561 43.781 18.5403C43.768 15.5369 43.7758 12.5336 43.781 9.5302C43.781 8.46055 43.82 8.42151 44.8584 8.42411C46.6464 8.42932 46.407 8.27837 46.4174 9.98565C46.4278 11.4561 46.4174 12.9239 46.4174 14.3944V14.3918Z" fill="#3F93FF"/>
<path d="M45.1237 7.4117C44.2544 7.4065 43.4971 6.63614 43.5257 5.78511C43.5543 4.9627 44.3247 4.23398 45.1549 4.24439C45.9955 4.2548 46.7477 4.99133 46.7555 5.81373C46.7659 6.66217 45.9929 7.41691 45.1211 7.4117H45.1237Z" fill="#3F93FF"/>
<path d="M14.562 11.9454C14.562 14.4985 14.5489 17.0543 14.5724 19.6074C14.5776 20.1877 14.411 20.4584 13.802 20.4011C13.4376 20.3673 13.0629 20.3673 12.6985 20.4011C12.0843 20.4558 11.8579 20.2268 11.8683 19.5943C11.9021 17.7543 11.8527 15.9143 11.8943 14.0769C11.9099 13.4185 11.7069 13.2207 11.0485 13.2311C8.92481 13.2675 6.80113 13.2623 4.67744 13.2337C4.06584 13.2259 3.83681 13.4029 3.84983 14.0379C3.88366 15.8779 3.86544 17.7179 3.86024 19.5553C3.86024 20.3439 3.80818 20.3881 3.00139 20.3933C2.56937 20.3959 2.13474 20.3777 1.70272 20.3959C1.19522 20.422 0.997423 20.1877 1.00003 19.7011C1.00783 18.5117 1.00003 17.3197 1.00003 16.1303C1.00003 12.2343 1.00003 8.33829 1.00003 4.44226C1.00003 3.50794 1.04947 3.4663 2.00461 3.4637C2.37418 3.4637 2.74374 3.48452 3.1081 3.45849C3.67025 3.41946 3.87585 3.65369 3.86804 4.21584C3.84722 6.07667 3.86024 7.9375 3.86024 9.79832C3.86024 10.4039 4.15432 10.7075 4.7425 10.7092C6.88701 10.7092 9.03412 10.6962 11.1786 10.7196C11.7148 10.7248 11.8943 10.5583 11.8865 10.0169C11.8605 8.09105 11.8969 6.16515 11.8657 4.23926C11.8553 3.63547 12.0765 3.41425 12.6595 3.45589C13.0473 3.48452 13.4402 3.48452 13.828 3.45589C14.4006 3.41425 14.575 3.65889 14.5698 4.21584C14.5463 6.78977 14.5593 9.3663 14.5593 11.9428L14.562 11.9454Z" stroke="#3F93FF" stroke-width="0.255556" mask="url(#path-1-outside-1_132_1980)"/>
<path d="M77.8927 11.9245C77.8927 14.4776 77.877 17.0307 77.9031 19.5839C77.9109 20.2007 77.7183 20.4219 77.0911 20.4063C74.8841 20.3464 75.2459 20.6925 75.2198 18.5689C75.2016 17.0125 75.2042 15.4536 75.2224 13.8947C75.2276 13.4288 75.0819 13.2336 74.5926 13.2388C72.3388 13.2544 70.0876 13.2544 67.8338 13.2388C67.3445 13.2362 67.1988 13.4314 67.2014 13.8947C67.217 15.7971 67.1909 17.7022 67.217 19.6073C67.2248 20.1902 67.04 20.4479 66.4336 20.4037C65.9599 20.3672 65.4811 20.388 65.0048 20.3958C64.6274 20.4011 64.44 20.2293 64.4453 19.8519C64.4453 19.7218 64.44 19.5917 64.44 19.4615C64.44 14.4412 64.44 9.42347 64.44 4.40314C64.44 3.47923 64.4557 3.4558 65.3926 3.46621C67.5215 3.48704 67.1805 3.19295 67.204 5.29321C67.2196 6.84954 67.2274 8.40847 67.1962 9.9674C67.1857 10.5165 67.3289 10.7326 67.9223 10.7247C70.1318 10.6935 72.3414 10.6987 74.551 10.7221C75.0637 10.7273 75.2302 10.5556 75.225 10.0481C75.2042 8.12219 75.2381 6.1963 75.2042 4.27301C75.1938 3.64059 75.428 3.4532 76.037 3.4558C77.8927 3.45841 77.8927 3.44019 77.8927 5.30622C77.8927 7.51319 77.8927 9.72016 77.8927 11.9271V11.9245Z" stroke="#3F93FF" stroke-width="0.255556" mask="url(#path-1-outside-1_132_1980)"/>
<path d="M29.8624 9.32718C29.8624 7.6173 29.8754 5.90742 29.8545 4.19754C29.8493 3.6484 30.0367 3.39335 30.6093 3.43499C31.0621 3.46622 31.5202 3.45841 31.973 3.43759C32.4519 3.41677 32.6263 3.63278 32.6237 4.09604C32.6107 5.54566 32.6185 6.99529 32.6237 8.44751C32.6237 9.19705 32.6471 9.23088 33.3342 8.88214C35.843 7.60689 38.9739 8.27314 40.6604 10.1964C42.3989 12.1796 42.8934 14.4386 41.7873 16.8798C40.7801 19.1076 38.9947 20.3906 36.5275 20.526C32.7928 20.729 29.891 17.939 29.8676 14.1992C29.8571 12.5752 29.8676 10.9512 29.8676 9.32978L29.8624 9.32718ZM36.1475 17.8714C38.1775 17.8688 39.6089 16.4165 39.5907 14.3735C39.5725 12.2655 38.2582 11.011 36.0721 11.011C33.9406 11.011 32.6471 12.2889 32.6185 14.3735C32.5924 16.2448 33.9926 17.9078 36.1475 17.8714Z" stroke="#3F93FF" stroke-width="0.255556" mask="url(#path-1-outside-1_132_1980)"/>
<path d="M124.895 15.7191C123.593 15.7191 122.295 15.7139 120.994 15.7243C120.767 15.7243 120.473 15.6228 120.34 15.8805C120.2 16.1563 120.439 16.3723 120.59 16.5701C121.402 17.6528 122.529 18.025 123.838 17.9677C124.733 17.9287 125.592 17.7205 126.402 17.3405C126.844 17.1349 127.18 17.2104 127.497 17.5695C127.755 17.861 128.039 18.1291 128.33 18.3867C128.7 18.7146 128.692 18.9619 128.265 19.2482C127.136 19.9977 125.873 20.3621 124.551 20.5104C121.785 20.8201 119.549 19.9248 118.092 17.4732C116.129 14.1706 117.837 10.1548 120.921 8.78068C124.689 7.10203 128.947 9.50419 129.556 13.3716C129.644 13.9285 129.775 14.4673 129.678 15.0398C129.598 15.5291 129.376 15.7399 128.858 15.7295C127.536 15.7035 126.214 15.7217 124.892 15.7217L124.895 15.7191ZM123.364 13.1035C124.252 13.1035 125.142 13.0957 126.029 13.1061C126.493 13.1113 126.61 12.9578 126.396 12.5206C125.78 11.2531 124.614 10.8523 123.38 10.8549C122.131 10.8549 121.009 11.3546 120.4 12.5986C120.192 13.0228 120.429 13.0983 120.762 13.1009C121.629 13.1087 122.495 13.1009 123.362 13.1035H123.364Z" stroke="#3F93FF" stroke-width="0.255556" mask="url(#path-1-outside-1_132_1980)"/>
<path d="M28.2072 16.8902C28.2072 17.8193 28.1838 18.1299 28.2072 19.0591C28.2072 19.7804 27.7799 20.3626 27.089 20.3568C25.2256 20.3412 23.8114 20.4531 21.9532 20.3568C18.8561 20.1981 16.3993 17.71 16.3915 14.6936C16.3863 12.4945 17.0812 10.7326 18.8093 9.37402C21.2505 7.45334 24.9982 7.97124 26.8643 10.4489C27.7908 11.6773 28.2202 13.0332 28.2072 14.5531C28.202 15.3313 28.2072 16.1094 28.2072 16.8902ZM25.5474 15.4978C25.5474 15.4978 25.5421 15.4978 25.5395 15.4978C25.5395 15.0007 25.576 14.4985 25.5317 14.0066C25.4615 13.2362 25.157 12.5465 24.6391 11.9662C23.7568 10.9824 22.6195 10.8575 21.4171 11.0943C20.1158 11.352 19.4443 12.2915 19.1138 13.4835C18.5621 15.4718 19.6968 17.3378 21.6721 17.5773C22.8042 17.7152 23.6556 17.6086 24.8033 17.6164C25.1442 17.6164 25.5343 17.1895 25.5317 16.8902C25.5291 16.3489 25.55 16.0392 25.55 15.4978H25.5474Z" stroke="#3F93FF" stroke-width="0.255556" mask="url(#path-1-outside-1_132_1980)"/>
<path d="M91.3989 16.8902C91.3989 17.8193 91.3755 18.1299 91.3989 19.0591C91.3989 19.7804 90.9716 20.3626 90.2808 20.3568C88.4173 20.3412 87.0032 20.4531 85.1449 20.3568C82.0479 20.1981 79.591 17.71 79.5832 14.6936C79.578 12.4945 80.2729 10.7326 82.001 9.37402C84.4422 7.45334 88.1899 7.97124 90.056 10.4489C90.9825 11.6773 91.4119 13.0332 91.3989 14.5531C91.3937 15.3313 91.3989 16.1094 91.3989 16.8902ZM88.7391 15.4978C88.7391 15.4978 88.7339 15.4978 88.7313 15.4978C88.7313 15.0007 88.7677 14.4985 88.7235 14.0066C88.6532 13.2362 88.3487 12.5465 87.8308 11.9662C86.9485 10.9824 85.8112 10.8575 84.6088 11.0943C83.3075 11.352 82.6361 12.2915 82.3055 13.4835C81.7538 15.4718 82.8885 17.3378 84.8638 17.5773C85.996 17.7152 86.8473 17.6086 87.995 17.6164C88.336 17.6164 88.7261 17.1895 88.7235 16.8902C88.7209 16.3489 88.7417 16.0392 88.7417 15.4978H88.7391Z" stroke="#3F93FF" stroke-width="0.255556" mask="url(#path-1-outside-1_132_1980)"/>
<path d="M99.8554 20.5416C96.1858 20.5312 93.7264 18.457 93.1174 15.3808C92.5891 12.7079 94.2599 9.84772 96.9536 8.72081C99.983 7.45337 103.405 8.84053 104.873 11.7528C105.071 12.1458 105.035 12.4112 104.579 12.544C104.496 12.5674 104.413 12.5934 104.332 12.6247C103.361 13.0228 102.648 13.2883 101.779 12.0885C100.589 10.4463 97.9634 10.6389 96.6049 12.1093C95.5664 13.2336 95.3556 15.87 97.167 17.1947C98.765 18.3633 101.105 17.9807 102.185 16.2995C102.574 15.693 102.848 15.5005 103.668 15.7972C103.913 15.8857 104.166 15.9496 104.41 16.034C105.177 16.2995 105.225 16.4563 104.869 17.1356C103.679 19.4128 101.802 20.4844 99.8502 20.5416H99.8554Z" stroke="#3F93FF" stroke-width="0.255556" mask="url(#path-1-outside-1_132_1980)"/>
<path d="M53.1319 11.175C52.5905 11.175 52.0492 11.1854 51.5079 11.1724C51.1175 11.162 50.9717 11.3311 50.9717 11.7163C50.9717 12.8406 50.9535 13.9649 51.0993 15.084C51.2476 16.2161 52.2834 17.278 53.4338 17.4992C54.0766 17.6215 54.722 17.671 55.3727 17.6371C55.8854 17.6111 56.13 17.8037 56.1248 18.345C56.1066 20.755 56.32 20.375 54.1495 20.375C50.9067 20.3724 48.4212 18.0145 48.3484 14.7821C48.2729 11.4743 48.3328 8.16382 48.3223 4.85337C48.3223 4.36669 48.4993 4.12726 49.0068 4.14808C49.4597 4.16629 49.9151 4.15588 50.3706 4.15588C50.8026 4.15588 50.9874 4.35108 50.9795 4.79351C50.9613 5.78769 50.9926 6.78447 50.9691 7.77864C50.9587 8.25751 51.1357 8.43449 51.612 8.42408C52.6296 8.40326 53.6472 8.42928 54.6648 8.41627C55.1593 8.41106 55.3831 8.61667 55.3649 9.11375C55.3492 9.5666 55.3414 10.0246 55.3675 10.4749C55.3987 11.024 55.141 11.2036 54.6257 11.1776C54.1286 11.1516 53.629 11.1724 53.1319 11.1724V11.175Z" stroke="#3F93FF" stroke-width="0.255556" mask="url(#path-1-outside-1_132_1980)"/>
<path d="M109.217 11.9298C109.217 14.4621 109.217 16.9943 109.217 19.524C109.217 20.3282 109.17 20.3829 108.379 20.3777C106.216 20.3594 106.565 20.6457 106.557 18.5663C106.539 13.827 106.552 9.08777 106.552 4.35112C106.552 3.44803 106.56 3.43242 107.452 3.44283C109.506 3.46625 109.201 3.16175 109.217 5.17873C109.232 7.42994 109.219 9.67855 109.219 11.9298H109.217Z" stroke="#3F93FF" stroke-width="0.255556" mask="url(#path-1-outside-1_132_1980)"/>
<path d="M116.163 20.3803C115.968 20.3803 115.77 20.3594 115.577 20.3855C114.942 20.4687 114.484 20.2293 114.052 19.753C112.598 18.1551 111.104 16.5935 109.612 15.0268C109.256 14.652 109.175 14.2981 109.553 13.8973C111.182 12.164 112.811 10.4307 114.44 8.69477C114.596 8.52821 114.786 8.43191 115.013 8.43191C115.835 8.42671 116.66 8.42671 117.483 8.42931C117.631 8.42931 117.81 8.42411 117.876 8.59327C117.943 8.76504 117.787 8.86914 117.688 8.97585C116.314 10.4437 114.935 11.9089 113.555 13.3742C113.482 13.4522 113.404 13.5277 113.329 13.6058C112.548 14.4152 112.564 14.423 113.36 15.2558C114.75 16.708 116.121 18.1785 117.488 19.6515C117.634 19.8077 117.946 19.9482 117.795 20.2293C117.662 20.4766 117.365 20.3698 117.136 20.3803C116.811 20.3959 116.486 20.3829 116.16 20.3829L116.163 20.3803Z" stroke="#3F93FF" stroke-width="0.255556" mask="url(#path-1-outside-1_132_1980)"/>
<path d="M130.875 16.6065C130.875 15.7841 130.875 14.9643 130.875 14.1419C130.875 10.946 133.207 8.75461 136.299 8.43449C136.963 8.36683 137.639 8.42669 138.311 8.41628C138.779 8.40847 138.948 8.63229 138.972 9.08774C139.078 11.1359 138.972 11.1329 137.017 11.175C135.929 11.1984 134.893 11.3806 134.193 12.3435C133.616 13.1373 133.54 14.0768 133.519 15.0034C133.483 16.5154 133.491 18.0301 133.519 19.5448C133.53 20.1538 133.319 20.3958 132.692 20.3828C130.558 20.336 130.906 20.6223 130.875 18.6157C130.865 17.9442 130.875 17.2754 130.875 16.6039V16.6065Z" stroke="#3F93FF" stroke-width="0.255556" mask="url(#path-1-outside-1_132_1980)"/>
<path d="M46.4174 14.3918C46.4174 16.1199 46.4018 17.8506 46.4278 19.5787C46.4356 20.1486 46.2742 20.4037 45.66 20.3907C43.5155 20.3412 43.7914 20.6561 43.781 18.5403C43.768 15.5369 43.7758 12.5336 43.781 9.5302C43.781 8.46055 43.82 8.42151 44.8584 8.42411C46.6464 8.42932 46.407 8.27837 46.4174 9.98565C46.4278 11.4561 46.4174 12.9239 46.4174 14.3944V14.3918Z" stroke="#3F93FF" stroke-width="0.255556" mask="url(#path-1-outside-1_132_1980)"/>
<path d="M45.1237 7.4117C44.2544 7.4065 43.4971 6.63614 43.5257 5.78511C43.5543 4.9627 44.3247 4.23398 45.1549 4.24439C45.9955 4.2548 46.7477 4.99133 46.7555 5.81373C46.7659 6.66217 45.9929 7.41691 45.1211 7.4117H45.1237Z" stroke="#3F93FF" stroke-width="0.255556" mask="url(#path-1-outside-1_132_1980)"/>
</svg>
