<svg width="216" height="114" viewBox="0 0 216 114" fill="none" xmlns="http://www.w3.org/2000/svg">
<path d="M21.2274 100.327C21.2274 104.324 21.207 108.324 21.2437 112.32C21.2518 113.228 20.9911 113.652 20.0379 113.562C19.4676 113.509 18.881 113.509 18.3107 113.562C17.3494 113.648 16.995 113.289 17.0112 112.3C17.0642 109.42 16.9868 106.54 17.052 103.664C17.0764 102.633 16.7587 102.323 15.7281 102.34C12.404 102.397 9.08002 102.389 5.75599 102.344C4.7987 102.332 4.44023 102.609 4.46059 103.603C4.51355 106.483 4.48503 109.363 4.47689 112.238C4.47689 113.473 4.39542 113.542 3.13261 113.55C2.4564 113.554 1.77611 113.526 1.0999 113.554C0.305557 113.595 -0.00403393 113.228 3.96309e-05 112.467C0.0122603 110.605 3.96309e-05 108.739 3.96309e-05 106.878C3.96309e-05 100.78 3.96309e-05 94.6814 3.96309e-05 88.5833C3.96309e-05 87.1209 0.0774373 87.0557 1.57244 87.0516C2.15088 87.0516 2.72933 87.0842 3.29963 87.0435C4.17952 86.9824 4.50133 87.349 4.48911 88.2289C4.45652 91.1415 4.47689 94.0541 4.47689 96.9667C4.47689 97.9145 4.9372 98.3897 5.85783 98.3924C9.21444 98.3924 12.5751 98.372 15.9318 98.4087C16.7709 98.4169 17.052 98.1561 17.0398 97.3088C16.999 94.2944 17.0561 91.28 17.0072 88.2655C16.9909 87.3205 17.3371 86.9742 18.2496 87.0394C18.8566 87.0842 19.4717 87.0842 20.0786 87.0394C20.9748 86.9742 21.2478 87.3571 21.2396 88.2289C21.2029 92.2576 21.2233 96.2905 21.2233 100.323L21.2274 100.327Z" fill="white"/>
<path d="M120.354 100.295C120.354 104.291 120.329 108.287 120.37 112.283C120.382 113.249 120.081 113.595 119.099 113.571C115.645 113.477 116.211 114.019 116.17 110.695C116.142 108.259 116.146 105.819 116.174 103.378C116.182 102.649 115.954 102.344 115.188 102.352C111.661 102.376 108.137 102.376 104.609 102.352C103.843 102.348 103.615 102.653 103.619 103.378C103.644 106.356 103.603 109.338 103.644 112.32C103.656 113.232 103.367 113.636 102.418 113.566C101.676 113.509 100.927 113.542 100.181 113.554C99.5907 113.562 99.2974 113.294 99.3055 112.703C99.3055 112.499 99.2974 112.295 99.2974 112.092C99.2974 104.234 99.2974 96.3801 99.2974 88.5222C99.2974 87.076 99.3218 87.0394 100.788 87.0557C104.12 87.0883 103.587 86.628 103.623 89.9153C103.648 92.3513 103.66 94.7914 103.611 97.2314C103.595 98.091 103.819 98.4291 104.748 98.4169C108.206 98.368 111.665 98.3761 115.123 98.4128C115.926 98.4209 116.186 98.1521 116.178 97.3577C116.146 94.3433 116.199 91.3289 116.146 88.3185C116.129 87.3286 116.496 87.0353 117.449 87.0394C120.354 87.0435 120.354 87.0149 120.354 89.9357C120.354 93.3901 120.354 96.8445 120.354 100.299V100.295Z" fill="white"/>
<path d="M45.1757 96.2294C45.1757 93.553 45.1961 90.8767 45.1635 88.2004C45.1553 87.3408 45.4486 86.9416 46.3448 87.0068C47.0536 87.0557 47.7706 87.0435 48.4794 87.0109C49.2289 86.9783 49.5018 87.3164 49.4978 88.0415C49.4774 90.3105 49.4896 92.5794 49.4978 94.8525C49.4978 96.0257 49.5344 96.0786 50.6098 95.5328C54.5368 93.5367 59.4373 94.5796 62.0769 97.5899C64.7981 100.694 65.5721 104.23 63.8408 108.051C62.2643 111.538 59.4699 113.546 55.6081 113.758C49.7625 114.076 45.2205 109.709 45.1839 103.855C45.1676 101.313 45.1839 98.7713 45.1839 96.2334L45.1757 96.2294ZM55.0134 109.603C58.1908 109.599 60.4312 107.326 60.4027 104.128C60.3742 100.828 58.317 98.8649 54.8952 98.8649C51.559 98.8649 49.5344 100.865 49.4896 104.128C49.4489 107.057 51.6405 109.66 55.0134 109.603Z" fill="white"/>
<path d="M193.922 106.234C191.885 106.234 189.853 106.226 187.816 106.242C187.461 106.242 187.001 106.083 186.793 106.487C186.573 106.918 186.948 107.256 187.184 107.566C188.455 109.261 190.219 109.843 192.268 109.754C193.669 109.692 195.014 109.367 196.281 108.772C196.973 108.45 197.499 108.568 197.996 109.13C198.399 109.587 198.843 110.006 199.299 110.409C199.878 110.923 199.865 111.31 199.197 111.758C197.429 112.931 195.454 113.501 193.384 113.733C189.054 114.218 185.555 112.817 183.274 108.98C180.202 103.81 182.875 97.5247 187.702 95.3739C193.6 92.7465 200.265 96.5064 201.218 102.56C201.356 103.431 201.56 104.275 201.409 105.171C201.283 105.937 200.937 106.267 200.126 106.25C198.057 106.21 195.987 106.238 193.918 106.238L193.922 106.234ZM191.527 102.14C192.916 102.14 194.309 102.128 195.698 102.144C196.423 102.152 196.607 101.912 196.272 101.228C195.307 99.2438 193.482 98.6165 191.551 98.6205C189.596 98.6205 187.84 99.4027 186.887 101.35C186.561 102.014 186.932 102.132 187.453 102.136C188.81 102.148 190.166 102.136 191.523 102.14H191.527Z" fill="white"/>
<path d="M42.5852 108.067C42.5852 109.521 42.5485 110.008 42.5852 111.462C42.5852 112.591 41.9164 113.502 40.835 113.493C37.9184 113.469 35.7049 113.644 32.7964 113.493C27.9488 113.245 24.1033 109.35 24.0911 104.629C24.083 101.187 25.1706 98.4291 27.8755 96.3027C31.6965 93.2964 37.5625 94.107 40.4832 97.9851C41.9334 99.9078 42.6056 102.03 42.5852 104.409C42.577 105.627 42.5852 106.845 42.5852 108.067ZM38.422 105.888C38.422 105.888 38.4138 105.888 38.4098 105.888C38.4098 105.11 38.4668 104.324 38.3975 103.554C38.2876 102.348 37.8109 101.268 37.0003 100.36C35.6194 98.8201 33.8392 98.6246 31.9572 98.9953C29.9204 99.3986 28.8694 100.869 28.3521 102.735C27.4885 105.847 29.2646 108.768 32.3564 109.143C34.1284 109.358 35.4609 109.192 37.2574 109.204C37.791 109.204 38.4016 108.536 38.3975 108.067C38.3935 107.22 38.4261 106.735 38.4261 105.888H38.422Z" fill="white"/>
<path d="M141.494 108.067C141.494 109.521 141.457 110.008 141.494 111.462C141.494 112.591 140.825 113.502 139.744 113.493C136.827 113.469 134.614 113.644 131.705 113.493C126.858 113.245 123.012 109.35 123 104.629C122.992 101.187 124.08 98.4291 126.784 96.3027C130.605 93.2964 136.471 94.107 139.392 97.9851C140.842 99.9078 141.514 102.03 141.494 104.409C141.486 105.627 141.494 106.845 141.494 108.067ZM137.331 105.888C137.331 105.888 137.323 105.888 137.319 105.888C137.319 105.11 137.376 104.324 137.306 103.554C137.196 102.348 136.72 101.268 135.909 100.36C134.528 98.8201 132.748 98.6246 130.866 98.9953C128.829 99.3986 127.778 100.869 127.261 102.735C126.397 105.847 128.173 108.768 131.265 109.143C133.037 109.358 134.37 109.192 136.166 109.204C136.7 109.204 137.311 108.536 137.306 108.067C137.302 107.22 137.335 106.735 137.335 105.888H137.331Z" fill="white"/>
<path d="M154.73 113.782C148.987 113.766 145.137 110.519 144.184 105.704C143.357 101.521 145.972 97.0441 150.188 95.2802C154.93 93.2964 160.287 95.4676 162.584 100.026C162.894 100.641 162.837 101.057 162.124 101.264C161.993 101.301 161.863 101.342 161.737 101.391C160.217 102.014 159.101 102.429 157.741 100.551C155.879 97.981 151.769 98.2824 149.642 100.584C148.017 102.344 147.687 106.47 150.522 108.544C153.023 110.373 156.686 109.774 158.376 107.142C158.986 106.193 159.414 105.892 160.698 106.356C161.081 106.495 161.477 106.595 161.859 106.727C163.06 107.142 163.135 107.388 162.577 108.451C160.716 112.016 157.777 113.693 154.722 113.782H154.73Z" fill="white"/>
<path d="M81.5975 99.1216C80.7502 99.1216 79.9029 99.1379 79.0556 99.1175C78.4445 99.1012 78.2164 99.366 78.2164 99.9689C78.2164 101.729 78.1879 103.488 78.416 105.24C78.6482 107.012 80.2695 108.674 82.07 109.02C83.0762 109.212 84.0864 109.289 85.1048 109.236C85.9073 109.196 86.2902 109.497 86.2821 110.344C86.2535 114.116 86.5876 113.522 83.1902 113.522C78.1146 113.518 74.2243 109.827 74.1102 104.768C73.9921 99.59 74.0858 94.4085 74.0695 89.2269C74.0695 88.4651 74.3465 88.0904 75.1409 88.123C75.8497 88.1515 76.5625 88.1352 77.2754 88.1352C77.9516 88.1352 78.2408 88.4407 78.2286 89.1332C78.2001 90.6893 78.249 92.2495 78.2123 93.8056C78.196 94.5551 78.473 94.8321 79.2185 94.8158C80.8113 94.7832 82.404 94.824 83.9968 94.8036C84.7708 94.7955 85.1211 95.1173 85.0926 95.8953C85.0681 96.6041 85.0559 97.3211 85.0966 98.0258C85.1455 98.8853 84.7422 99.1664 83.9357 99.1257C83.1576 99.0849 82.3755 99.1175 81.5975 99.1175V99.1216Z" fill="white"/>
<path d="M169.383 100.303C169.383 104.266 169.383 108.23 169.383 112.19C169.383 113.448 169.31 113.534 168.071 113.526C164.686 113.497 165.232 113.945 165.22 110.691C165.191 103.273 165.212 95.8546 165.212 88.4407C165.212 87.0272 165.224 87.0027 166.621 87.019C169.835 87.0557 169.358 86.5791 169.383 89.7361C169.407 93.2597 169.387 96.7793 169.387 100.303H169.383Z" fill="white"/>
<path d="M180.255 113.53C179.95 113.53 179.64 113.497 179.339 113.538C178.345 113.668 177.628 113.294 176.952 112.548C174.674 110.047 172.336 107.603 170.002 105.15C169.444 104.564 169.318 104.01 169.908 103.383C172.458 100.67 175.008 97.9566 177.559 95.2395C177.803 94.9788 178.1 94.8281 178.455 94.8281C179.742 94.8199 181.033 94.8199 182.321 94.824C182.553 94.824 182.834 94.8158 182.936 95.0806C183.042 95.3495 182.797 95.5124 182.642 95.6794C180.491 97.9769 178.332 100.27 176.174 102.564C176.059 102.686 175.937 102.804 175.819 102.926C174.597 104.193 174.621 104.205 175.868 105.509C178.043 107.782 180.19 110.084 182.329 112.389C182.557 112.634 183.046 112.854 182.809 113.294C182.602 113.681 182.137 113.513 181.779 113.53C181.27 113.554 180.76 113.534 180.251 113.534L180.255 113.53Z" fill="white"/>
<path d="M203.283 107.623C203.283 106.336 203.283 105.053 203.283 103.765C203.283 98.7631 206.933 95.3332 211.772 94.8321C212.811 94.7262 213.87 94.8199 214.921 94.8036C215.654 94.7914 215.919 95.1417 215.956 95.8546C216.123 99.0605 215.956 99.0557 212.896 99.1216C211.194 99.1582 209.572 99.4434 208.477 100.951C207.572 102.193 207.454 103.664 207.422 105.114C207.365 107.481 207.377 109.851 207.422 112.222C207.438 113.175 207.108 113.554 206.126 113.534C202.786 113.461 203.332 113.909 203.283 110.768C203.267 109.717 203.283 108.67 203.283 107.619V107.623Z" fill="white"/>
<path d="M71.0879 104.157C71.0879 106.861 71.0634 109.57 71.1042 112.275C71.1164 113.167 70.8638 113.566 69.9025 113.546C66.5458 113.469 66.9776 113.962 66.9613 110.65C66.941 105.949 66.9532 101.248 66.9613 96.5471C66.9613 94.8729 67.0224 94.8118 68.6478 94.8158C71.4463 94.824 71.0716 94.5877 71.0879 97.26C71.1042 99.5615 71.0879 101.859 71.0879 104.161V104.157Z" fill="white"/>
<path d="M69.0632 93.2312C67.7026 93.2231 66.5172 92.0173 66.562 90.6852C66.6068 89.398 67.8126 88.2574 69.1121 88.2737C70.4278 88.29 71.6051 89.4428 71.6173 90.73C71.6336 92.058 70.4238 93.2394 69.0591 93.2312H69.0632Z" fill="white"/>
<rect x="78" width="59" height="59" rx="12.4648" fill="white"/>
<mask id="mask0_98_1069" style="mask-type:alpha" maskUnits="userSpaceOnUse" x="78" y="0" width="59" height="59">
<rect x="78" width="59" height="59" rx="12.4648" fill="white"/>
</mask>
<g mask="url(#mask0_98_1069)">
<path d="M151.22 -1.47649C157.092 5.84319 156.096 15.9185 149.629 21.1071C143.161 26.2958 133.11 25.0835 127.237 17.7639C121.365 10.4442 122.361 0.368899 128.828 -4.81976C135.296 -10.0084 145.347 -8.79617 151.22 -1.47649Z" fill="white" stroke="#2685FF" stroke-width="6.64789"/>
<path d="M93.7888 42.468L125.549 16.9875" stroke="#2685FF" stroke-width="7.47887"/>
<path d="M88.6077 30.8925L96.4133 39.6777" stroke="#2685FF" stroke-width="7.47887" stroke-linecap="round"/>
<path d="M100.926 21.6056L108.732 30.3908" stroke="#2685FF" stroke-width="7.47887" stroke-linecap="round"/>
</g>
<rect x="78" width="59" height="59" rx="12.4648" fill="white"/>
<mask id="mask1_98_1069" style="mask-type:alpha" maskUnits="userSpaceOnUse" x="78" y="0" width="59" height="59">
<rect x="78" width="59" height="59" rx="12.4648" fill="white"/>
</mask>
<g mask="url(#mask1_98_1069)">
<path d="M151.22 -1.47649C157.092 5.84319 156.096 15.9185 149.629 21.1071C143.161 26.2958 133.11 25.0835 127.237 17.7639C121.365 10.4442 122.361 0.368899 128.828 -4.81976C135.296 -10.0084 145.347 -8.79617 151.22 -1.47649Z" fill="white" stroke="#2685FF" stroke-width="6.64789"/>
<path d="M93.7888 42.468L125.549 16.9875" stroke="#2685FF" stroke-width="7.47887"/>
<path d="M88.6077 30.8925L96.4133 39.6777" stroke="#2685FF" stroke-width="7.47887" stroke-linecap="round"/>
<path d="M100.926 21.6056L108.732 30.3908" stroke="#2685FF" stroke-width="7.47887" stroke-linecap="round"/>
</g>
<rect x="78" width="59" height="59" rx="12.4648" fill="white"/>
<mask id="mask2_98_1069" style="mask-type:alpha" maskUnits="userSpaceOnUse" x="78" y="0" width="59" height="59">
<rect x="78" width="59" height="59" rx="12.4648" fill="white"/>
</mask>
<g mask="url(#mask2_98_1069)">
<path d="M143.4 -3.73038C150.36 1.48264 151.773 10.735 147.189 16.8549C142.605 22.9748 133.329 24.2209 126.369 19.0079C119.409 13.7949 117.996 4.54252 122.58 -1.57735C127.164 -7.69723 136.44 -8.9434 143.4 -3.73038Z" fill="white" stroke="#2685FF" stroke-width="6.64789"/>
<path d="M93.9255 37.8146C92.3219 39.1159 92.0767 41.4708 93.378 43.0745C94.6793 44.6782 97.0342 44.9233 98.6379 43.6221L93.9255 37.8146ZM98.6379 43.6221L125.961 21.4513L121.249 15.6438L93.9255 37.8146L98.6379 43.6221Z" fill="#2685FF"/>
<path d="M88.6565 31.5775L96.2536 40.5436" stroke="#2685FF" stroke-width="7.47887" stroke-linecap="round"/>
<path d="M101.268 22.0211L108.732 30.3908" stroke="#2685FF" stroke-width="7.47887" stroke-linecap="round"/>
</g>
</svg>
