<svg width="216" height="145" viewBox="0 0 216 145" fill="none" xmlns="http://www.w3.org/2000/svg">
<path d="M21.2274 131.327C21.2274 135.324 21.207 139.324 21.2437 143.32C21.2518 144.228 20.9911 144.652 20.0379 144.562C19.4676 144.509 18.881 144.509 18.3107 144.562C17.3494 144.648 16.995 144.289 17.0112 143.3C17.0642 140.42 16.9868 137.54 17.052 134.664C17.0764 133.633 16.7587 133.323 15.7281 133.34C12.404 133.397 9.08002 133.389 5.75599 133.344C4.7987 133.332 4.44023 133.609 4.46059 134.603C4.51355 137.483 4.48503 140.363 4.47689 143.238C4.47689 144.473 4.39542 144.542 3.13261 144.55C2.4564 144.554 1.77611 144.526 1.0999 144.554C0.305557 144.595 -0.00403393 144.228 3.96309e-05 143.467C0.0122603 141.605 3.96309e-05 139.739 3.96309e-05 137.878C3.96309e-05 131.78 3.96309e-05 125.681 3.96309e-05 119.583C3.96309e-05 118.121 0.0774373 118.056 1.57244 118.052C2.15088 118.052 2.72933 118.084 3.29963 118.043C4.17952 117.982 4.50133 118.349 4.48911 119.229C4.45652 122.141 4.47689 125.054 4.47689 127.967C4.47689 128.914 4.9372 129.39 5.85783 129.392C9.21444 129.392 12.5751 129.372 15.9318 129.409C16.7709 129.417 17.052 129.156 17.0398 128.309C16.999 125.294 17.0561 122.28 17.0072 119.266C16.9909 118.32 17.3371 117.974 18.2496 118.039C18.8566 118.084 19.4717 118.084 20.0786 118.039C20.9748 117.974 21.2478 118.357 21.2396 119.229C21.2029 123.258 21.2233 127.29 21.2233 131.323L21.2274 131.327Z" fill="black"/>
<path d="M120.354 131.295C120.354 135.291 120.329 139.287 120.37 143.283C120.382 144.249 120.081 144.595 119.099 144.571C115.645 144.477 116.211 145.019 116.17 141.695C116.142 139.259 116.146 136.819 116.174 134.378C116.182 133.649 115.954 133.344 115.188 133.352C111.661 133.376 108.137 133.376 104.609 133.352C103.843 133.348 103.615 133.653 103.619 134.378C103.644 137.356 103.603 140.338 103.644 143.32C103.656 144.232 103.367 144.636 102.418 144.566C101.676 144.509 100.927 144.542 100.181 144.554C99.5906 144.562 99.2973 144.294 99.3055 143.703C99.3055 143.499 99.2973 143.295 99.2973 143.092C99.2973 135.234 99.2973 127.38 99.2973 119.522C99.2973 118.076 99.3218 118.039 100.788 118.056C104.12 118.088 103.587 117.628 103.623 120.915C103.648 123.351 103.66 125.791 103.611 128.231C103.595 129.091 103.819 129.429 104.748 129.417C108.206 129.368 111.665 129.376 115.123 129.413C115.926 129.421 116.186 129.152 116.178 128.358C116.146 125.343 116.199 122.329 116.146 119.318C116.129 118.329 116.496 118.035 117.449 118.039C120.354 118.043 120.354 118.015 120.354 120.936C120.354 124.39 120.354 127.844 120.354 131.299V131.295Z" fill="black"/>
<path d="M45.1757 127.229C45.1757 124.553 45.1961 121.877 45.1635 119.2C45.1553 118.341 45.4486 117.942 46.3448 118.007C47.0536 118.056 47.7706 118.043 48.4794 118.011C49.2289 117.978 49.5018 118.316 49.4978 119.041C49.4774 121.31 49.4896 123.579 49.4978 125.852C49.4978 127.026 49.5344 127.079 50.6098 126.533C54.5368 124.537 59.4373 125.58 62.0769 128.59C64.7981 131.694 65.572 135.23 63.8408 139.051C62.2643 142.538 59.4698 144.546 55.6081 144.758C49.7625 145.076 45.2205 140.709 45.1838 134.855C45.1676 132.313 45.1838 129.771 45.1838 127.233L45.1757 127.229ZM55.0134 140.603C58.1907 140.599 60.4312 138.326 60.4027 135.128C60.3742 131.828 58.317 129.865 54.8952 129.865C51.559 129.865 49.5344 131.865 49.4896 135.128C49.4489 138.057 51.6405 140.66 55.0134 140.603Z" fill="black"/>
<path d="M193.922 137.234C191.885 137.234 189.853 137.226 187.816 137.242C187.461 137.242 187.001 137.083 186.793 137.487C186.573 137.918 186.948 138.256 187.184 138.566C188.455 140.261 190.219 140.843 192.268 140.754C193.67 140.692 195.014 140.367 196.281 139.772C196.973 139.45 197.499 139.568 197.996 140.13C198.399 140.587 198.843 141.006 199.299 141.409C199.878 141.923 199.865 142.31 199.197 142.758C197.429 143.931 195.454 144.501 193.384 144.733C189.054 145.218 185.555 143.817 183.274 139.98C180.202 134.81 182.875 128.525 187.702 126.374C193.6 123.746 200.265 127.506 201.218 133.56C201.356 134.431 201.56 135.275 201.409 136.171C201.283 136.937 200.937 137.267 200.126 137.25C198.057 137.21 195.987 137.238 193.918 137.238L193.922 137.234ZM191.527 133.14C192.916 133.14 194.309 133.128 195.698 133.144C196.423 133.152 196.607 132.912 196.273 132.228C195.307 130.244 193.482 129.616 191.551 129.621C189.596 129.621 187.84 130.403 186.887 132.35C186.561 133.014 186.932 133.132 187.453 133.136C188.81 133.148 190.166 133.136 191.523 133.14H191.527Z" fill="black"/>
<path d="M42.5852 139.067C42.5852 140.521 42.5485 141.008 42.5852 142.462C42.5852 143.591 41.9164 144.502 40.835 144.493C37.9184 144.469 35.7049 144.644 32.7964 144.493C27.9488 144.245 24.1033 140.35 24.0911 135.629C24.083 132.187 25.1706 129.429 27.8755 127.303C31.6965 124.296 37.5625 125.107 40.4832 128.985C41.9334 130.908 42.6056 133.03 42.5852 135.409C42.577 136.627 42.5852 137.845 42.5852 139.067ZM38.422 136.888C38.422 136.888 38.4138 136.888 38.4098 136.888C38.4098 136.11 38.4668 135.324 38.3975 134.554C38.2875 133.348 37.8109 132.268 37.0003 131.36C35.6194 129.82 33.8392 129.625 31.9572 129.995C29.9204 130.399 28.8694 131.869 28.3521 133.735C27.4885 136.847 29.2646 139.768 32.3564 140.143C34.1284 140.358 35.4609 140.192 37.2574 140.204C37.791 140.204 38.4016 139.536 38.3975 139.067C38.3935 138.22 38.4261 137.735 38.4261 136.888H38.422Z" fill="black"/>
<path d="M141.494 139.067C141.494 140.521 141.457 141.008 141.494 142.462C141.494 143.591 140.825 144.502 139.744 144.493C136.827 144.469 134.614 144.644 131.705 144.493C126.858 144.245 123.012 140.35 123 135.629C122.992 132.187 124.08 129.429 126.784 127.303C130.605 124.296 136.471 125.107 139.392 128.985C140.842 130.908 141.514 133.03 141.494 135.409C141.486 136.627 141.494 137.845 141.494 139.067ZM137.331 136.888C137.331 136.888 137.323 136.888 137.319 136.888C137.319 136.11 137.376 135.324 137.306 134.554C137.196 133.348 136.72 132.268 135.909 131.36C134.528 129.82 132.748 129.625 130.866 129.995C128.829 130.399 127.778 131.869 127.261 133.735C126.397 136.847 128.174 139.768 131.265 140.143C133.037 140.358 134.37 140.192 136.166 140.204C136.7 140.204 137.311 139.536 137.306 139.067C137.302 138.22 137.335 137.735 137.335 136.888H137.331Z" fill="black"/>
<path d="M154.73 144.782C148.986 144.766 145.137 141.519 144.184 136.704C143.357 132.521 145.972 128.044 150.188 126.28C154.93 124.296 160.287 126.468 162.584 131.026C162.894 131.641 162.837 132.057 162.124 132.264C161.993 132.301 161.863 132.342 161.737 132.391C160.217 133.014 159.101 133.429 157.741 131.551C155.879 128.981 151.769 129.282 149.642 131.584C148.017 133.344 147.687 137.47 150.522 139.544C153.023 141.373 156.686 140.774 158.376 138.142C158.986 137.193 159.414 136.892 160.698 137.356C161.081 137.495 161.477 137.595 161.859 137.727C163.06 138.142 163.135 138.388 162.577 139.451C160.716 143.016 157.777 144.693 154.722 144.782H154.73Z" fill="black"/>
<path d="M81.5975 130.122C80.7502 130.122 79.9029 130.138 79.0556 130.118C78.4446 130.101 78.2165 130.366 78.2165 130.969C78.2165 132.729 78.188 134.488 78.4161 136.24C78.6483 138.012 80.2696 139.674 82.0701 140.02C83.0763 140.212 84.0865 140.289 85.1049 140.236C85.9074 140.196 86.2903 140.497 86.2821 141.344C86.2536 145.116 86.5877 144.522 83.1903 144.522C78.1146 144.518 74.2244 140.827 74.1103 135.768C73.9922 130.59 74.0859 125.408 74.0696 120.227C74.0696 119.465 74.3466 119.09 75.1409 119.123C75.8497 119.151 76.5626 119.135 77.2755 119.135C77.9517 119.135 78.2409 119.441 78.2287 120.133C78.2002 121.689 78.2491 123.249 78.2124 124.806C78.1961 125.555 78.4731 125.832 79.2186 125.816C80.8113 125.783 82.4041 125.824 83.9969 125.804C84.7708 125.795 85.1212 126.117 85.0927 126.895C85.0682 127.604 85.056 128.321 85.0967 129.026C85.1456 129.885 84.7423 130.166 83.9358 130.126C83.1577 130.085 82.3756 130.118 81.5975 130.118V130.122Z" fill="black"/>
<path d="M169.383 131.303C169.383 135.266 169.383 139.23 169.383 143.19C169.383 144.448 169.31 144.534 168.071 144.526C164.686 144.497 165.232 144.945 165.22 141.691C165.191 134.273 165.212 126.855 165.212 119.441C165.212 118.027 165.224 118.003 166.621 118.019C169.835 118.056 169.358 117.579 169.383 120.736C169.407 124.26 169.387 127.779 169.387 131.303H169.383Z" fill="black"/>
<path d="M180.255 144.53C179.95 144.53 179.64 144.497 179.339 144.538C178.345 144.668 177.628 144.294 176.952 143.548C174.674 141.047 172.336 138.603 170.002 136.15C169.444 135.564 169.318 135.01 169.908 134.383C172.458 131.67 175.008 128.957 177.558 126.239C177.803 125.979 178.1 125.828 178.455 125.828C179.742 125.82 181.033 125.82 182.32 125.824C182.553 125.824 182.834 125.816 182.936 126.081C183.041 126.349 182.797 126.512 182.642 126.679C180.491 128.977 178.332 131.27 176.173 133.564C176.059 133.686 175.937 133.804 175.819 133.926C174.597 135.193 174.621 135.205 175.868 136.509C178.043 138.782 180.19 141.084 182.329 143.389C182.557 143.634 183.046 143.854 182.809 144.294C182.602 144.681 182.137 144.513 181.779 144.53C181.269 144.554 180.76 144.534 180.251 144.534L180.255 144.53Z" fill="black"/>
<path d="M203.283 138.623C203.283 137.336 203.283 136.053 203.283 134.765C203.283 129.763 206.933 126.333 211.772 125.832C212.811 125.726 213.87 125.82 214.921 125.804C215.654 125.791 215.919 126.142 215.956 126.855C216.123 130.06 215.956 130.056 212.897 130.122C211.194 130.158 209.572 130.443 208.477 131.951C207.572 133.193 207.454 134.664 207.422 136.114C207.365 138.481 207.377 140.851 207.422 143.222C207.438 144.175 207.108 144.554 206.126 144.534C202.786 144.461 203.332 144.909 203.283 141.768C203.267 140.717 203.283 139.67 203.283 138.619V138.623Z" fill="black"/>
<path d="M71.0878 135.157C71.0878 137.861 71.0634 140.57 71.1041 143.275C71.1164 144.167 70.8638 144.566 69.9024 144.546C66.5458 144.469 66.9776 144.962 66.9613 141.65C66.941 136.949 66.9532 132.248 66.9613 127.547C66.9613 125.873 67.0224 125.812 68.6478 125.816C71.4463 125.824 71.0716 125.588 71.0878 128.26C71.1041 130.562 71.0878 132.859 71.0878 135.161V135.157Z" fill="black"/>
<path d="M69.0631 124.231C67.7025 124.223 66.5171 123.017 66.562 121.685C66.6068 120.398 67.8125 119.257 69.112 119.274C70.4278 119.29 71.605 120.443 71.6172 121.73C71.6335 123.058 70.4237 124.239 69.0591 124.231H69.0631Z" fill="black"/>
<rect x="80" width="59" height="59" rx="15" fill="#3F93FF"/>
<mask id="mask0_98_1070" style="mask-type:alpha" maskUnits="userSpaceOnUse" x="80" y="0" width="59" height="59">
<rect x="80" width="59" height="59" rx="15" fill="#2685FF"/>
</mask>
<g mask="url(#mask0_98_1070)">
<path d="M152.693 -1.05343C158.357 6.00759 157.35 15.6501 151.206 20.5798C145.061 25.5095 135.43 24.4018 129.765 17.3408C124.1 10.2798 125.107 0.637272 131.252 -4.29244C137.396 -9.22215 147.028 -8.11445 152.693 -1.05343Z" fill="#3F93FF" stroke="white" stroke-width="8"/>
<path d="M95.7888 42.468L127.549 16.9875" stroke="white" stroke-width="9"/>
<path d="M90.6077 30.8925L98.4133 39.6777" stroke="white" stroke-width="9" stroke-linecap="round"/>
<path d="M102.926 21.6056L110.732 30.3908" stroke="white" stroke-width="9" stroke-linecap="round"/>
</g>
<rect x="80" width="59" height="59" rx="15" fill="#3F93FF"/>
<mask id="mask1_98_1070" style="mask-type:alpha" maskUnits="userSpaceOnUse" x="80" y="0" width="59" height="59">
<rect x="80" width="59" height="59" rx="15" fill="#2685FF"/>
</mask>
<g mask="url(#mask1_98_1070)">
<path d="M152.693 -1.05343C158.357 6.00759 157.35 15.6501 151.206 20.5798C145.061 25.5095 135.43 24.4018 129.765 17.3408C124.1 10.2798 125.107 0.637272 131.252 -4.29244C137.396 -9.22215 147.028 -8.11445 152.693 -1.05343Z" fill="#3F93FF" stroke="white" stroke-width="8"/>
<path d="M95.7888 42.468L127.549 16.9875" stroke="white" stroke-width="9"/>
<path d="M90.6077 30.8925L98.4133 39.6777" stroke="white" stroke-width="9" stroke-linecap="round"/>
<path d="M102.926 21.6056L110.732 30.3908" stroke="white" stroke-width="9" stroke-linecap="round"/>
</g>
<rect x="80" width="59" height="59" rx="15" fill="#3F93FF"/>
<mask id="mask2_98_1070" style="mask-type:alpha" maskUnits="userSpaceOnUse" x="80" y="0" width="59" height="59">
<rect x="80" width="59" height="59" rx="15" fill="#2685FF"/>
</mask>
<g mask="url(#mask2_98_1070)">
<path d="M144.995 -3.18927C151.69 1.82495 152.984 10.6609 148.648 16.4496C144.312 22.2383 135.469 23.481 128.774 18.4668C122.08 13.4526 120.786 4.61661 125.121 -1.17206C129.457 -6.96072 138.301 -8.20349 144.995 -3.18927Z" fill="#3F93FF" stroke="white" stroke-width="8"/>
<path d="M95.4463 37.224C93.5164 38.7899 93.2214 41.6239 94.7874 43.5537C96.3534 45.4836 99.1873 45.7786 101.117 44.2126L95.4463 37.224ZM101.117 44.2126L128.44 22.0419L122.769 15.0532L95.4463 37.224L101.117 44.2126Z" fill="white"/>
<path d="M90.6562 31.5775L98.2533 40.5436" stroke="white" stroke-width="9" stroke-linecap="round"/>
<path d="M103.268 22.0211L110.732 30.3908" stroke="white" stroke-width="9" stroke-linecap="round"/>
</g>
</svg>
